<svg xmlns="http://www.w3.org/2000/svg" xmlns:xlink="http://www.w3.org/1999/xlink" version="1.1" width="693.2131" height="203.6667" viewBox="0 0 693.2131 203.6667">
<defs>
<clipPath id="clip_0">
<path transform="matrix(1,0,0,-1,0,203.6667)" d="M103.419 73.93219H665.4143V162.33454H103.419Z"/>
</clipPath>
<clipPath id="clip_1">
<path transform="matrix(1,0,0,-1,0,203.6667)" d="M249.0081 37H589.1253V87H249.0081Z"/>
</clipPath>
<clipPath id="clip_2">
<path transform="matrix(1,0,0,-1,0,203.6667)" d="M36 45.66669H158V167.66669H36Z"/>
</clipPath>
</defs>
<g clip-path="url(#clip_0)">
<text xml:space="preserve" transform="matrix(1 0 -0 1 207.7916 103.2208)" font-size="48" font-family="Palatino" font-weight="bold"><tspan y="0" x="0 29.3184 53.318399 80.016 104.016 133.3344 149.31839 173.31839 202.6368 214.6368 243.9552 270.6528 286.6368 315.9552 331.9392 347.92323 374.62083 403.9392">Seyantek Solutions</tspan></text>
</g>
<g clip-path="url(#clip_1)">
<text xml:space="preserve" transform="matrix(1 0 -0 1 274.4573 146.6667)" font-size="24" font-family="AcademyEngravedLetPlain"><tspan y="0" x="0 7.4640009 25.5456 39.0816 49.9104 56.167203 66 74.7192 85.56">-Analyse,</tspan></text>
<text xml:space="preserve" transform="matrix(1 0 -0 1 274.4573 146.6667)" font-size="24" font-family="AcademyEngravedLetPlain"><tspan y="0" x="90.67969"> </tspan></text>
<text xml:space="preserve" transform="matrix(1 0 -0 1 274.4573 146.6667)" font-size="24" font-family="AcademyEngravedLetPlain"><tspan y="0" x="98.625 116.965808 129.7626 136.3914 142.56421 162.753 168.92581 177.64261 188.4714">Optimise,</tspan></text>
<text xml:space="preserve" transform="matrix(1 0 -0 1 274.4573 146.6667)" font-size="24" font-family="AcademyEngravedLetPlain"><tspan y="0" x="193.5938"> </tspan></text>
<text xml:space="preserve" transform="matrix(1 0 -0 1 274.4573 146.6667)" font-size="24" font-family="AcademyEngravedLetPlain"><tspan y="0" x="201.5391 214.1007 226.92629 237.03989 247.15349 257.9871 268.8207 281.7423">Succeed-</tspan></text>
</g>
<g clip-path="url(#clip_2)">
<path transform="matrix(1,0,0,-1,0,203.6667)" d="M37 166.6667V130.4792C37 120.4622 45.12362 112.3386 55.14062 112.3386H82.23438C82.75937 112.3384 83.18123 111.9072 83.18125 111.3823V101.9511C83.18115 101.4261 82.75928 101.0042 82.23438 101.0042H55.14062C45.12362 101.0042 37.00001 92.88056 37 82.86356V46.66669H73.1875C83.2045 46.66669 91.32811 54.79033 91.32812 64.80732V91.90106C91.32832 92.42606 91.75947 92.84792 92.28437 92.84794H101.7156C102.2406 92.84784 102.6625 92.42596 102.6625 91.90106V64.80732C102.6625 54.79032 110.7861 46.66671 120.8031 46.66669H157V82.85419C157 92.87119 148.8764 100.9948 138.8594 100.9948H111.7656C111.2406 100.995 110.8188 101.4262 110.8187 101.9511V111.3823C110.8188 111.9073 111.2407 112.3292 111.7656 112.3292L138.8594 112.3386C148.8764 112.3386 157 120.4622 157 130.4792V166.6667H120.8125C110.7955 166.6667 102.6719 158.5431 102.6719 148.5261V121.4323C102.6717 120.9073 102.2405 120.4854 101.7156 120.4854H92.28437C91.75937 120.4855 91.33749 120.9074 91.3375 121.4323V148.5261C91.3375 158.5431 83.21386 166.6667 73.19687 166.6667H37ZM45.14687 158.5198H73.1875C78.7045 158.5198 83.18123 154.0431 83.18125 148.5261V121.4323C83.18115 120.9073 82.75928 120.4854 82.23438 120.4854H55.14062C49.62362 120.4854 45.14689 124.9622 45.14687 130.4792V158.5198ZM120.8125 158.5198H148.8531V130.4792C148.8531 124.9622 144.3764 120.4854 138.8594 120.4854H111.7656C111.2406 120.4855 110.8188 120.9074 110.8187 121.4323V148.5261C110.8188 154.0431 115.2955 158.5198 120.8125 158.5198ZM92.28437 112.3292H101.7156C102.2406 112.3291 102.6625 111.9072 102.6625 111.3823V101.9511C102.6653 101.426 102.2435 100.9948 101.7156 100.9948H92.28437C91.75927 100.995 91.32811 101.4262 91.32812 101.9511V111.3823C91.32832 111.9073 91.75947 112.3292 92.28437 112.3292ZM55.14062 92.84794H82.23438C82.75937 92.84784 83.18123 92.42596 83.18125 91.90106V64.80732C83.18125 59.29032 78.70451 54.81359 73.1875 54.81357H45.14687V82.85419C45.14688 88.37119 49.62361 92.84792 55.14062 92.84794ZM111.7656 92.84794H138.8594C144.3764 92.84794 148.8531 88.37118 148.8531 82.85419V54.81357H120.8125C115.2955 54.81357 110.8188 59.29032 110.8187 64.80732V91.90106C110.8188 92.42606 111.2407 92.84792 111.7656 92.84794ZM111.7656 92.84794"/>
</g>
</svg>
