<svg xmlns="http://www.w3.org/2000/svg" xmlns:xlink="http://www.w3.org/1999/xlink" xmlns:inkscape="http://www.inkscape.org/namespaces/inkscape" version="1.1" width="617.593" height="173.4667" viewBox="0 0 617.593 173.4667">
<defs>
<clipPath id="clip_0">
<path transform="matrix(1,0,0,-1,0,173.4667)" d="M182.2389 37H521.3541V85H182.2389Z"/>
</clipPath>
<clipPath id="clip_1">
<path transform="matrix(1,0,0,-1,0,173.4667)" d="M63.39651 45H133.39652V115H63.39651Z"/>
</clipPath>
<clipPath id="clip_2">
<path transform="matrix(1,0,0,-1,0,173.4667)" d="M27.79883 53.2655H589.7941V141.66785H27.79883Z"/>
</clipPath>
</defs>
<g clip-path="url(#clip_0)">
<text xml:space="preserve" transform="matrix(1 0 -0 1 191.191 121.810459)" font-size="24" font-family="Palatino" font-weight="bold"><tspan y="0" x="0 7.992 26.6592 41.3184 53.3184 61.310403 74.6592 85.3104 97.3104 103.3104 109.3104 129.3024 143.9616 151.9536 159.9456 181.2864 189.27841 199.92961 211.92961 217.92961 223.92961 238.5888 253.248 263.8992 274.5504 286.5504 298.5504 313.20964">-Analyse, Optimise, Succeed-</tspan></text>
</g>
<g clip-path="url(#clip_1)">
<path transform="matrix(1,0,0,-1,0,173.4667)" d="M64.39651 114V93.49375C64.39651 87.81745 69.00042 83.21407 74.6762 83.21406H90.02933C90.32688 83.21418 90.56588 82.96955 90.56589 82.67219V77.32781C90.56595 77.03026 90.32669 76.79124 90.02933 76.79125H74.6762C68.9999 76.79125 64.39652 72.18734 64.39651 66.51156V46H84.90277C90.57906 46 95.18244 50.60391 95.18245 56.27969V71.63281C95.18234 71.93036 95.42697 72.16936 95.72433 72.16937H101.0687C101.3663 72.16943 101.6053 71.93018 101.6053 71.63281V56.27969C101.6053 50.60339 106.2092 46.00001 111.885 46H132.3965V66.50625C132.3965 72.18255 127.7926 76.78593 122.1168 76.78593H106.7637C106.4662 76.78582 106.2272 77.03045 106.2271 77.32781V82.67219C106.2271 82.96974 106.4663 83.20875 106.7637 83.20875L122.1168 83.21406C127.7931 83.21406 132.3965 87.81797 132.3965 93.49375V114H111.8903C106.214 114 101.6106 109.3961 101.6106 103.7203V88.36719C101.6107 88.06964 101.3661 87.83063 101.0687 87.83063H95.72433C95.42678 87.83056 95.18776 88.06982 95.18777 88.36719V103.7203C95.18777 109.3966 90.58386 114 84.90808 114H64.39651ZM69.01308 109.3834H84.90277C88.02906 109.3834 90.56588 106.8473 90.56589 103.7203V88.36719C90.56595 88.06964 90.32669 87.83063 90.02933 87.83063H74.6762C71.5499 87.83062 69.01309 90.3668 69.01308 93.49375V109.3834ZM111.8903 109.3834H127.78V93.49375C127.78 90.36745 125.2438 87.83062 122.1168 87.83063H106.7637C106.4662 87.83056 106.2272 88.06982 106.2271 88.36719V103.7203C106.2271 106.8466 108.7633 109.3834 111.8903 109.3834ZM95.72433 83.20875H101.0687C101.3663 83.20881 101.6053 82.96955 101.6053 82.67219V77.32781C101.6068 77.0302 101.3678 76.78593 101.0687 76.78593H95.72433C95.42671 76.78582 95.18244 77.03045 95.18245 77.32781V82.67219C95.18234 82.96974 95.42697 83.20875 95.72433 83.20875ZM74.6762 72.16937H90.02933C90.32688 72.16943 90.56588 71.93018 90.56589 71.63281V56.27969C90.56589 53.15339 88.02972 50.61657 84.90277 50.61656H69.01308V66.50625C69.01308 69.63255 71.54925 72.16936 74.6762 72.16937ZM106.7637 72.16937H122.1168C125.2431 72.16937 127.7799 69.6332 127.78 66.50625V50.61656H111.8903C108.764 50.61656 106.2272 53.15274 106.2271 56.27969V71.63281C106.2271 71.93036 106.4663 72.16936 106.7637 72.16937ZM106.7637 72.16937"/>
</g>
<g clip-path="url(#clip_2)">
<text xml:space="preserve" transform="matrix(1 0 -0 1 143.5035 93.68754)" font-size="48" font-family="Palatino"><tspan y="0" x="0 25.1952 48.187204 74.8848 98.8848 126.8208 142.4784 165.4704 192.168 204.168 229.36319 255.56639 269.5344 298.4784 314.13603 328.104 354.30723 382.24324">Seyantek Solutions</tspan></text>
</g>
</svg>
