<svg xmlns="http://www.w3.org/2000/svg" xmlns:xlink="http://www.w3.org/1999/xlink" version="1.1" width="194" height="194" viewBox="0 0 194 194">
<defs>
<clipPath id="clip_0">
<path transform="matrix(1,0,0,-1,0,194)" d="M36 36H158V158H36Z"/>
</clipPath>
</defs>
<g clip-path="url(#clip_0)">
<path transform="matrix(1,0,0,-1,0,194)" d="M37 157V120.8125C37 110.7955 45.12362 102.6719 55.14062 102.6719H82.23438C82.75937 102.6717 83.18123 102.2405 83.18125 101.7156V92.28437C83.18115 91.75937 82.75928 91.33749 82.23438 91.33749H55.14062C45.12362 91.33749 37.00001 83.21386 37 73.19687V37H73.1875C83.2045 37 91.32811 45.12363 91.32812 55.14062V82.23437C91.32832 82.75937 91.75947 83.18123 92.28437 83.18124H101.7156C102.2406 83.18114 102.6625 82.75927 102.6625 82.23437V55.14062C102.6625 45.12362 110.7861 37.00001 120.8031 37H157V73.18749C157 83.20449 148.8764 91.32811 138.8594 91.32812H111.7656C111.2406 91.32832 110.8188 91.75947 110.8187 92.28437V101.7156C110.8188 102.2406 111.2407 102.6625 111.7656 102.6625L138.8594 102.6719C148.8764 102.6719 157 110.7955 157 120.8125V157H120.8125C110.7955 157 102.6719 148.8764 102.6719 138.8594V111.7656C102.6717 111.2406 102.2405 110.8188 101.7156 110.8187H92.28437C91.75937 110.8188 91.33749 111.2407 91.3375 111.7656V138.8594C91.3375 148.8764 83.21386 157 73.19687 157H37ZM45.14687 148.8531H73.1875C78.7045 148.8531 83.18123 144.3764 83.18125 138.8594V111.7656C83.18115 111.2406 82.75928 110.8188 82.23438 110.8187H55.14062C49.62362 110.8187 45.14689 115.2955 45.14687 120.8125V148.8531ZM120.8125 148.8531H148.8531V120.8125C148.8531 115.2955 144.3764 110.8187 138.8594 110.8187H111.7656C111.2406 110.8188 110.8188 111.2407 110.8187 111.7656V138.8594C110.8188 144.3764 115.2955 148.8531 120.8125 148.8531ZM92.28437 102.6625H101.7156C102.2406 102.6624 102.6625 102.2405 102.6625 101.7156V92.28437C102.6653 91.75927 102.2435 91.32811 101.7156 91.32812H92.28437C91.75927 91.32832 91.32811 91.75947 91.32812 92.28437V101.7156C91.32832 102.2406 91.75947 102.6625 92.28437 102.6625ZM55.14062 83.18124H82.23438C82.75937 83.18114 83.18123 82.75927 83.18125 82.23437V55.14062C83.18125 49.62362 78.70451 45.14689 73.1875 45.14687H45.14687V73.18749C45.14688 78.70449 49.62361 83.18123 55.14062 83.18124ZM111.7656 83.18124H138.8594C144.3764 83.18124 148.8531 78.70449 148.8531 73.18749V45.14687H120.8125C115.2955 45.14688 110.8188 49.62363 110.8187 55.14062V82.23437C110.8188 82.75937 111.2407 83.18123 111.7656 83.18124ZM111.7656 83.18124"/>
</g>
</svg>
